# xmcd
#
# Track frame offsets:
#	150
#	11136
#	23664
#	41206
#	53282
#	83373
#	101581
#	116652
#	129478
#	141955
#	163412
#	175314
#	195513
#	210011
#	219652
#	245674
#	258551
#	281146
#	300745
#
# Disc length: 4346 seconds
#
# Revision: 1
# Processed by: cddbd v1.5.2PL0 Copyright (c) Steve Scherf et al.
# Submitted via: audiograbber 1.83.01
#
DISCID=0c10f813
DTITLE=Kim Carson and Johnny Falstaff - Live in Freiburg 2008
DYEAR=2008
DGENRE=
TTITLE0=Can you see
TTITLE1=Absinthe makes the heart grow fonder
TTITLE2=Around the Lakeside
TTITLE3=Big Mamou
TTITLE4=Wondering
TTITLE5=I'll be your Baby tonight
TTITLE6=Leaving Louisiana in the broad daylight
TTITLE7=Say you do
TTITLE8=Tquila makes my clothes fall off
TTITLE9=No one to blame
TTITLE10=Eileen
TTITLE11=Big River
TTITLE12=Shine
TTITLE13=Just because you're gone
TTITLE14=Fool for you
TTITLE15=Buddy Johnson
TTITLE16=Another long day
TTITLE17=Muleskinner Blues
TTITLE18=Bobby McGee
EXTD=
EXTT0=
EXTT1=
EXTT2=
EXTT3=
EXTT4=
EXTT5=
EXTT6=
EXTT7=
EXTT8=
EXTT9=
EXTT10=
EXTT11=
EXTT12=
EXTT13=
EXTT14=
EXTT15=
EXTT16=
EXTT17=
EXTT18=
PLAYORDER=
